<svg xmlns="http://www.w3.org/2000/svg" viewBox="0 0 88 28" height="36" width="36">
       <defs>
           <pattern id="a___vc5YqrbW" data-name="2/2 - black" width="4" height="4" patternTransform="translate(2 36.53)" patternUnits="userSpaceOnUse" viewBox="0 0 4 4">
                <path class="cls-1" fill="none" d="M0 0h4v4H0z"></path>
                     <path d="M0 0h2v2H0z"></path>
           </pattern>
             <clipPath id="b___vc5YqrbW">
                  <path class="cls-1" fill="none" d="M34 30.6a10.64 10.64 0 0 0-7.52-3.12h-1.66l15.47 15.16a1.26 1.26 0 0 0 1.79 0l2-2z"></path>
             </clipPath>
        </defs>
         <title>ias-icons</title>
         <path class="cls-2" fill="rgb(166,165,165)" d="M76.27 7.24h-6a8 8 0 0 1-5.67-2.35l-3.05-3.07A6.22 6.22 0 0 0 57.15 0h-5.57L32.39 11.83h7.36L24.46 27.12l15.83 15.52a1.26 1.26 0 0 0 1.79 0l12.08-12.08a10.64 10.64 0 0 1 7.52-3.12h14.59V7.24z"></path>
         <path class="cls-3" fill="#d6d6d5" d="M63.19 25.68L37.51 0h-5.58a6.22 6.22 0 0 0-4.4 1.82l-3.07 3.07a8 8 0 0 1-5.66 2.35h-7.07v20.24h14.79A10.64 10.64 0 0 1 34 30.6l12.12 12.07a1.26 1.26 0 0 0 1.76 0l15.28-14.59a1.68 1.68 0 0 0 .03-2.4z"></path>
         <path class="cls-3" fill="#d6d6d5" d="M41.3 5.89l-3.79 5.94V0h7.06L41.3 5.89z"></path>
         <path class="cls-2" fill="#a6a5a5" d="M53.45 0h-7.71A9.46 9.46 0 0 0 39 2.77l-3.08 3.12-3.63 3.63.87.87a4.77 4.77 0 0 0 6.75 0l4.15-4.14H56z"></path>
         <path class="cls-4" stroke="#000" stroke-miterlimit="10" stroke-width="2" fill="none" d="M60.27 30.84l-5.81-5.81M55.92 35l-5.82-5.81m1.46 9.97l-5.82-5.81"></path>
         <path fill="#a6a5a5" d="M0 7.24h11.73v24.45H0z"></path>
         <path fill="#5879DA" d="M76.27 7.24H88v24.45H76.27z"></path>
         <path class="cls-7" fill="url(#a___vc5YqrbW)" d="M76.27 7.24H88v24.45H76.27z"></path>
         <g class="cls-8" clip-path="url(#b___vc5YqrbW)">
               <path class="cls-4" stroke="#000" stroke-miterlimit="10" stroke-width="2" fill="none" d="M28.42 31l2.96-2.96m1.34 7.17l2.95-2.94m1.35 7.16l2.9-2.9"></path>
        </g>
</svg>