<svg xmlns="http://www.w3.org/2000/svg" xmlns:xlink="http://www.w3.org/1999/xlink" width="20px" height="20px" viewBox="0 0 40 40" version="1.1">
  <!-- Generator: Sketch 49 (51002) - http://www.bohemiancoding.com/sketch -->
  <title>btn_google_light_normal_ios</title>
  <desc>Created with Sketch.</desc>
  <defs>
    <path d="M1.997,0 L38.003,0 C39.108,0 40,0.894 40,1.997 L40,38.003 C40,39.108 39.106,40 38.003,40 L1.997,40 C0.892,40 0,39.106 0,38.003 L0,1.997 C0,0.892 0.894,0 1.997,0 Z" id="path-1"/>
    <path d="M8.64,2.205 C8.64,4.945 7.658,7.253 5.956,8.82 L3.048,8.82 L3.048,6.561 C4.001,5.923 4.635,4.97 4.844,3.845 L0,3.845 L0,0.364 L8.476,0.364 C8.583,0.953 8.64,1.566 8.64,2.205 Z" id="path-3"/>
    <path d="M9,8 C5.482,8 2.438,5.983 0.957,3.042 L0.957,0.71 L3.964,0.71 C4.672,2.837 6.656,4.42 9,4.42 C10.211,4.42 11.242,4.101 12.048,3.561 L14.956,5.82 C13.467,7.194 11.43,8 9,8 Z" id="path-5"/>
    <path d="M3.964,6.71 L0.957,9.042 C0.348,7.827 0,6.452 0,5 C0,3.548 0.348,2.173 0.957,0.958 L3.964,0.958 L3.964,3.29 C3.784,3.83 3.682,4.407 3.682,5 C3.682,5.593 3.784,6.17 3.964,6.71 Z" id="path-7"/>
    <path d="M9,3.58 C6.656,3.58 4.672,5.163 3.964,7.29 L0.957,4.958 C2.438,2.017 5.482,0 9,0 C11.426,0 13.463,0.892 15.022,2.344 L12.44,4.925 C11.508,4.034 10.321,3.58 9,3.58 Z" id="path-9"/>
  </defs>
  <g id="Designs" stroke="none" stroke-width="1" fill="none" fill-rule="evenodd">
    <g id="btn_google_light_normal_ios">
      <g id="Group-4">
        <mask id="mask-2" fill="white">
          <use xlink:href="#path-1"/>
        </mask>
        <g id="Clip-3"/>
        <polygon id="Fill-2" fill="#FFFFFF" mask="url(#mask-2)" points="-0.06 40 40.02 40 40.02 -0.08 -0.06 -0.08"/>
      </g>
      <g id="Group-7" transform="translate(20.000000, 18.000000)">
        <mask id="mask-4" fill="white">
          <use xlink:href="#path-3"/>
        </mask>
        <g id="Clip-6"/>
        <polygon id="Fill-5" fill="#318AF5" mask="url(#mask-4)" points="-0.02 8.92 8.74 8.92 8.74 0.28 -0.02 0.28"/>
      </g>
      <g id="Group-10" transform="translate(11.000000, 21.000000)">
        <mask id="mask-6" fill="white">
          <use xlink:href="#path-5"/>
        </mask>
        <g id="Clip-9"/>
        <polygon id="Fill-8" fill="#3DA751" mask="url(#mask-6)" points="0.94 8.08 14.98 8.08 14.98 0.64 0.94 0.64"/>
      </g>
      <g id="Group-13" transform="translate(11.000000, 15.000000)">
        <mask id="mask-8" fill="white">
          <use xlink:href="#path-7"/>
        </mask>
        <g id="Clip-12"/>
        <polygon id="Fill-11" fill="#FDB900" mask="url(#mask-8)" points="-0.02 9.16 4.06 9.16 4.06 0.88 -0.02 0.88"/>
      </g>
      <g id="Group-16" transform="translate(11.000000, 11.000000)">
        <mask id="mask-10" fill="white">
          <use xlink:href="#path-9"/>
        </mask>
        <g id="Clip-15"/>
        <polygon id="Fill-14" fill="#EA3E36" mask="url(#mask-10)" points="0.94 7.4 15.1 7.4 15.1 -0.04 0.94 -0.04"/>
      </g>
    </g>
  </g>
</svg>