<svg xmlns="http://www.w3.org/2000/svg" xmlns:xlink="http://www.w3.org/1999/xlink" width="16px" height="16px" viewBox="0 0 24 24" version="1.1">
    <!-- Generator: Sketch 51.2 (57519) - http://www.bohemiancoding.com/sketch -->
    <title>icon/reportMap</title>
    <desc>Created with Sketch.</desc>
    <defs/>
    <g id="icon/reportMap" stroke="none" stroke-width="1" fill="none" fill-rule="evenodd">
        <g id="Group-11">
            <path d="M2.1816,12.0002182 L-0.000218181818,24.0002182 L23.9997818,24.0002182 L21.8179636,12.0002182 L2.1816,12.0002182 Z M4.91323636,15.2729455 L19.0863273,15.2729455 L20.0779636,20.7274909 L3.9216,20.7274909 L4.91323636,15.2729455 Z" id="Fill-1" fill="#000000"/>
            <g id="Group-10" transform="translate(4.363636, 0.000000)">
                <path d="M3.39414545,11.8795636 C1.05414545,9.53956364 1.05414545,5.73229091 3.39414545,3.39338182 C4.52650909,2.26101818 6.03414545,1.63592727 7.63669091,1.63592727 C9.23814545,1.63592727 10.7457818,2.26101818 11.8781455,3.39338182 C14.2181455,5.73229091 14.2181455,9.53956364 11.8781455,11.8795636 L7.63669091,16.1221091 L3.39414545,11.8795636 Z" id="Fill-2" fill="#FFFFFF"/>
                <path d="M7.63636364,0 C5.68254545,0 3.72763636,0.746181818 2.23636364,2.23745455 C-0.746181818,5.21890909 -0.746181818,10.0538182 2.23636364,13.0352727 L7.63636364,18.4352727 L13.0363636,13.0352727 C16.0189091,10.0538182 16.0189091,5.21890909 13.0363636,2.23745455 C11.5450909,0.746181818 9.59018182,0 7.63636364,0 M7.63636364,3.27272727 C8.80145455,3.27272727 9.89781818,3.72654545 10.7214545,4.55127273 C12.4232727,6.252 12.4232727,9.02072727 10.7214545,10.7214545 L7.63636364,13.8065455 L4.55127273,10.7214545 C2.84945455,9.02072727 2.84945455,6.252 4.55127273,4.55127273 C5.37490909,3.72654545 6.47127273,3.27272727 7.63636364,3.27272727" id="Fill-4" fill="#000000"/>
                <path d="M9.27272727,7.63636364 C9.27272727,8.53963636 8.53963636,9.27272727 7.63636364,9.27272727 C6.73309091,9.27272727 6,8.53963636 6,7.63636364 C6,6.73309091 6.73309091,6 7.63636364,6 C8.53963636,6 9.27272727,6.73309091 9.27272727,7.63636364" id="Fill-6" fill="#FFFFFF"/>
                <path d="M7.63636364,6 C6.73309091,6 6,6.73309091 6,7.63636364 C6,8.53963636 6.73309091,9.27272727 7.63636364,9.27272727 C8.53963636,9.27272727 9.27272727,8.53963636 9.27272727,7.63636364 C9.27272727,6.73309091 8.53963636,6 7.63636364,6" id="Fill-8" fill="#000000"/>
            </g>
        </g>
    </g>
</svg>