<svg xmlns="http://www.w3.org/2000/svg" xmlns:xlink="http://www.w3.org/1999/xlink" width="16px" height="16px" viewBox="0 0 24 24" version="1.1">
    <!-- Generator: Sketch 51.2 (57519) - http://www.bohemiancoding.com/sketch -->
    <title>icon/money</title>
    <desc>Created with Sketch.</desc>
    <defs/>
    <g id="icon/money" stroke="none" stroke-width="1" fill="none" fill-rule="evenodd">
        <g id="Group" transform="translate(0.000000, 3.000000)">
            <path d="M0,17.4500008 L23.993751,17.4500008 L23.993751,0 L0,0 L0,17.4500008 Z M3.27187514,14.1781256 L20.7218759,14.1781256 L20.7218759,3.27187514 L3.27187514,3.27187514 L3.27187514,14.1781256 Z" id="Fill-1" fill="#000000"/>
            <polygon id="Fill-2" fill="#000000" points="3.27187514 6 6 6 6 3.27187514 3.27187514 3.27187514"/>
            <polygon id="Fill-3" fill="#000000" points="18 14.1781256 20.7218759 14.1781256 20.7218759 11.4562497 18 11.4562497"/>
            <g id="Group-8" transform="translate(8.725000, 5.453125)">
                <path d="M3.27187514,4.90781271 C2.36992823,4.90781271 1.63593757,4.17382206 1.63593757,3.27187514 C1.63593757,2.36992823 2.36992823,1.63593757 3.27187514,1.63593757 C4.17382206,1.63593757 4.90781271,2.36992823 4.90781271,3.27187514 C4.90781271,4.17382206 4.17382206,4.90781271 3.27187514,4.90781271" id="Fill-4" fill="#FFFFFF"/>
                <path d="M3.27187514,0.5 C1.74087611,0.5 0.5,1.74087611 0.5,3.27187514 C0.5,4.80287418 1.74087611,6.04375029 3.27187514,6.04375029 C4.80287418,6.04375029 6.04375029,4.80287418 6.04375029,3.27187514 C6.04375029,1.74087611 4.80287418,0.5 3.27187514,0.5" id="Fill-6" fill="#000000"/>
            </g>
        </g>
    </g>
</svg>