<svg xmlns="http://www.w3.org/2000/svg" height="25" width="100%" >
    <defs>
        <style>
            .pattern-stroke{
                stroke: #62CEAD!important;
                stroke-width: 1.05;
                fill: none
            }
        </style>
        <pattern id="a" width="30" height="30" patternUnits="userSpaceOnUse">
            <path class="pattern-stroke" d="M11.5 39.8L0 51.2 8.8 60h12.4l8.8-8.8-11.5-11.4c-1.9-2-5.1-2-7 0z"></path>
            <path class="pattern-stroke" d="M30 38.8L18.5 50.3c-2 2-5.1 2-7.1 0L0 38.8 8.8 30h12.4l8.8 8.8zm11.5 1L30 51.2l8.8 8.8h12.4l8.8-8.8-11.5-11.4c-1.9-2-5.1-2-7 0z"></path>
            <path class="pattern-stroke" d="M60 38.8L48.5 50.3c-2 2-5.1 2-7.1 0L30 38.8l8.8-8.8h12.4l8.8 8.8zm-48.5-29L0 21.2 8.8 30h12.4l8.8-8.8L18.5 9.8c-1.9-2-5.1-2-7 0z"></path>
            <path class="pattern-stroke" d="M30 8.8L18.5 20.3c-2 2-5.1 2-7.1 0L0 8.8 8.8 0h12.4L30 8.8zm11.5 1L30 21.2l8.8 8.8h12.4l8.8-8.8L48.5 9.8c-1.9-2-5.1-2-7 0z"></path>
            <path class="pattern-stroke" d="M60 8.8L48.5 20.3c-2 2-5.1 2-7.1 0L30 8.8 38.8 0h12.4L60 8.8z"></path>
        </pattern>
    </defs>
    <rect fill="url(#a)" height="100%" width="100%"></rect>
</svg>