<svg xmlns="http://www.w3.org/2000/svg" viewBox="0 0 85 85" height="22" width="22">
     <defs>
       <style>
         .cls-1{fill:#276ef1;}
         .cls-2{fill:#9cc0ff;}
         .cls-3{fill:#fff;}
       </style>
    </defs>
    <title>Safety Center</title>
    <g id="Hand_Ref" data-name="Hand Ref">
      <path class="cls-1" d="M8,19.72,42.5,0,77,19.72v23.6A39.73,39.73,0,0,1,54.74,79L42.5,85,30.26,79A39.73,39.73,0,0,1,8,43.32Z"/>
      <path d="M69.34,24.67V43.32a32.3,32.3,0,0,1-18,28.82L42.5,76.49l-8.88-4.35a32.1,32.1,0,0,1-18-28.81V24.67L42.5,9.35Z"/>
      <polygon class="cls-2" points="42.42 42.06 42.41 42.08 42.4 42.07 42.42 42.06"/>
      <polygon class="cls-2" points="42.42 42.06 42.42 42.1 42.41 42.08 42.42 42.06"/>
      <polygon class="cls-2" points="42.42 42.06 42.4 42.07 42.38 42.05 42.42 42.06"/>
      <path class="cls-3" d="M61.68,33.71l-14.76.06L42.42,19.72l-4.5,14.05-14.76-.06,12,8.63-4.61,14,11.9-8.71,11.71,8.58.2.14-4.62-14Z"/>
      <path class="cls-2" d="M33.75,62.08H51v3.1a2.87,2.87,0,0,0-2.87,2.87H36.63a2.87,2.87,0,0,0-2.87-2.87Z"/>
    </g>
</svg>