<svg xmlns="http://www.w3.org/2000/svg" width="192" height="192" viewBox="0 0 192 192" fill="none">
    <g clip-path="url(#mask29)">
        <path d="M113.41 28.1687V28.0774C113.257 27.5904 113.196 27.073 113.196 26.5252C113.196 26.4643 113.165 26.4035 113.165 26.3426C113.135 25.3991 113.318 24.5165 113.746 23.6948C114.021 22.8426 114.51 22.1121 115.183 21.5034C115.702 20.9252 116.314 20.5295 117.017 20.2252C117.323 13.073 113.624 6.01206 106.868 2.35986C97.4222 -2.75321 85.592 0.716379 80.4564 10.1208C75.3209 19.5252 78.8057 31.3035 88.2515 36.4166C97.361 41.347 108.672 38.3035 114.082 29.6904C113.777 29.2339 113.563 28.7165 113.41 28.1687Z" fill="black"/>
        <path d="M64.4383 107.512C76.8303 107.512 86.8759 97.5109 86.8759 85.1732C86.8759 72.8356 76.8303 62.834 64.4383 62.834C52.0464 62.834 42.0007 72.8356 42.0007 85.1732C42.0007 97.5109 52.0464 107.512 64.4383 107.512Z" fill="black"/>
        <path d="M99.501 124.252L92.5312 114.421L98.3088 99.6297L104.728 106.599L127.502 78.7817L136.275 81.6731L110.995 123.795C108.427 128.056 102.344 128.269 99.501 124.252Z" fill="#99644C"/>
        <path d="M149.481 53.8261L146.608 59.7614C146.18 60.6137 145.263 60.918 144.529 60.431C143.795 59.944 143.551 58.8483 143.979 57.9656L147.127 52.1216C147.555 51.2693 148.9 50.2344 149.634 50.7215C150.337 51.2085 149.878 52.9738 149.481 53.8261Z" fill="#99644C"/>
        <path d="M139.913 77.6866L138.935 80.4257L135.847 81.9475L127.41 78.6301C128.175 77.5344 128.572 76.1344 128.572 74.7344V69.53L139.913 77.6866Z" fill="#99644C"/>
        <path d="M135.909 81.2786C131.873 81.2786 128.572 77.3826 128.572 72.5735H144.132L141.9 77.1696C140.677 79.6959 138.385 81.2786 135.909 81.2786Z" fill="#99644C"/>
        <path d="M132.913 69.4387V71.0823C132.913 71.9042 133.463 72.5738 134.166 72.5738H145.66C146.363 72.5738 146.913 71.9042 146.913 71.0823V69.4387H132.913Z" fill="#256EEF"/>
        <path d="M146.913 50.2344V48.5908C146.913 47.769 146.363 47.0994 145.66 47.0994H134.166C133.463 47.0994 132.913 47.769 132.913 48.5908V50.2344H146.913Z" fill="#256EEF"/>
        <path d="M146.883 50.2344H132.913V69.4693H146.883V50.2344Z" fill="white"/>
        <path d="M148.197 65.0865C147.586 66.2127 146.21 66.2127 145.599 65.0865C145.293 64.5082 145.293 63.7473 145.599 63.1994C146.21 62.0732 147.586 62.0732 148.197 63.1994C148.503 63.7473 148.503 64.5082 148.197 65.0865Z" fill="#99644C"/>
        <path d="M148.197 68.6778C147.586 69.804 146.21 69.804 145.599 68.6778C145.293 68.0995 145.293 67.3386 145.599 66.7907C146.21 65.6645 147.586 65.6645 148.197 66.7907C148.503 67.3386 148.503 68.0995 148.197 68.6778Z" fill="#99644C"/>
        <path d="M135.725 76.1654L128.603 72.5741V64.4176C128.603 63.1089 128.939 61.8306 129.611 60.7958L133.31 54.7392C133.494 54.4045 133.891 54.374 134.166 54.6175C135.144 55.5306 135.205 56.6566 134.594 57.9349L132.943 62.348L133.31 66.3045L134.594 67.948C135.358 68.9219 135.786 70.2002 135.786 71.5393V76.1654H135.725Z" fill="#99644C"/>
        <path d="M148.197 61.4647C147.586 62.5909 146.21 62.5909 145.599 61.4647C145.293 60.8864 145.293 60.1254 145.599 59.5776C146.21 58.4514 147.586 58.4514 148.197 59.5776C148.503 60.1559 148.503 60.9168 148.197 61.4647Z" fill="#99644C"/>
        <path d="M143.184 74.5215H137.345C136.428 74.5215 135.695 73.6388 135.695 72.5735H144.132L143.184 74.5215Z" fill="black"/>
        <path d="M139.913 71.7515C140.318 71.7515 140.647 71.4245 140.647 71.021C140.647 70.6176 140.318 70.2905 139.913 70.2905C139.508 70.2905 139.179 70.6176 139.179 71.021C139.179 71.4245 139.508 71.7515 139.913 71.7515Z" fill="white"/>
        <path d="M116.436 17.3037C116.192 16.5732 115.458 15.4776 115.244 14.3819C114.999 14.595 114.724 14.7776 114.419 14.9298C113.624 15.4167 112.768 15.6906 111.851 15.7515C111.239 15.9037 110.628 15.9037 110.017 15.7515C109.1 15.7211 108.244 15.4472 107.449 14.9298C107.327 14.8385 107.204 14.7472 107.113 14.6558C106.593 14.8689 106.012 14.9906 105.431 15.0211C104.82 15.1732 104.209 15.1732 103.597 15.0211C102.68 14.9906 101.824 14.7167 101.029 14.1993C100.571 13.8341 100.112 13.4993 99.6232 13.1341C99.5009 13.0124 99.4092 12.9211 99.2869 12.7993C95.6798 15.1428 92.47 17.5472 88.1598 20.8341C85.5615 22.8428 83.0242 24.9124 80.5176 27.0429C79.6922 27.7429 78.8363 28.2907 77.8887 28.6255C78.7446 31.6081 80.2119 34.3168 82.1378 36.5994L98.4615 45.4864C105.095 45.4864 111.117 41.6516 113.929 35.656L114.877 33.5864C115.458 32.369 115.641 30.9994 115.397 29.6907C115.213 28.5342 114.877 26.5863 115.305 25.4907C116.711 21.9907 117.659 20.8646 116.436 17.3037Z" fill="#99644C"/>
        <path d="M117.017 19.9207C117.078 17.1816 116.558 14.4424 115.519 11.9468L92.7758 15.5381C92.2561 16.9077 91.8587 18.3077 91.6142 19.7381C91.5225 20.9555 91.5225 22.1729 91.6142 23.3903C91.8587 24.699 92.195 25.9469 92.6841 27.1642C93.326 28.5034 94.0903 29.7817 94.9462 30.9686C96.0467 32.2773 97.2389 33.4643 98.5533 34.5599C99.7761 35.4426 101.06 36.2034 102.374 36.873C102.864 37.1165 103.292 37.4208 103.689 37.786C106.624 36.8426 117.017 19.9207 117.017 19.9207Z" fill="#99644C"/>
        <path d="M63.7354 60.582C64.041 60.7038 64.3467 60.8255 64.6524 60.9473C64.3162 60.8255 64.0105 60.7038 63.7354 60.582Z" fill="black"/>
        <path d="M137.406 192H51.7825C38.3016 172.278 38.8518 146.226 53.1581 127.082L53.8917 126.108L69.9099 125.439H90.0854L137.406 192Z" fill="black"/>
        <path d="M117.842 57.8435C117.842 65.3609 111.759 72.1479 103.444 72.1479L56.9184 75.1001L44.752 74.4001L80.4565 9.878L80.6093 9.63452L115.488 11.9171C116.925 15.478 115.886 19.5563 112.951 22.0215L111.606 23.1172L109.191 24.1824L104.789 26.465C104.789 26.465 112.951 44.026 116.558 51.9391C117.445 53.8869 117.842 55.8956 117.842 57.8435Z" fill="black"/>
        <path d="M90.0856 125.439H69.9102L53.9226 126.291L54.0449 90.1037C54.0755 78.2949 59.425 67.1253 68.5957 59.6383L68.8402 59.4253C73.7924 55.4079 79.9062 53.2166 86.2034 53.2166H97.7584L107.754 86.5124C109.864 93.5733 108.58 101.212 104.27 107.178L90.0856 125.439Z" fill="white"/>
        <path d="M95.9242 68.3428L96.016 86.8777C96.016 92.8429 91.1555 97.6821 85.1334 97.6821C79.1419 97.6821 74.312 92.8429 74.312 86.8777V68.3428H95.9242Z" fill="black"/>
        <path d="M107.968 28.5955C110.045 28.5955 111.728 26.5651 111.728 24.0603C111.728 21.5556 110.045 19.5251 107.968 19.5251C105.892 19.5251 104.208 21.5556 104.208 24.0603C104.208 26.5651 105.892 28.5955 107.968 28.5955Z" fill="#99644C"/>
        <path d="M94.9767 73.5778L69.9101 125.439L90.1468 153.956L84.1858 162.326L57.1935 134.235C53.9837 130.917 52.9138 126.048 54.4728 121.695L74.8623 64.4473C77.0327 58.5125 83.6356 55.4386 89.5965 57.5994C95.6186 59.7299 97.147 67.6125 94.9767 73.5778Z" fill="#99644C"/>
    </g>
    <defs></defs>
</svg>